<svg xmlns="http://www.w3.org/2000/svg" width="200" height="40" viewBox="0 0 307.43 68">
    <g id="Слой_2" data-name="Слой 2">
        <g id="Слой_1-2" data-name="Слой 1">
            <path d="M88.38,45.07H80.57V22.93h7.81v-7.8h24.41v7.8H88.38V45.07h24.41v7.81H88.38Zm100-29.94v7.8H167.29V45.07h21.07v7.81H159.49V15.13Zm-5.5,22.77h-7.8V30.1h7.8Zm14.42-.63V15.13h7.8V34.41l8.31,9.79,8.32-9.79V15.13h7.8V37.27L216.26,52.88h-5.73ZM299.62,22.93H284v7.8h15.6Zm-3.34,30-3.78-6.54-1.18-2.05-2.6-4.49L288,38.53h-4V52.88h-7.8V15.13h23.4v7.8h7.81v7.8h-7.81v7.8H297l.73,1.27,2.6,4.49,1.18,2.05,3.78,6.54Zm-29-37.75v7.8H246.23V45.07H267.3v7.81H238.43V15.13ZM261.79,37.9H254V30.1h7.8ZM121.7,15.13h7.81V45.07h21.06v7.81H121.7Z"
                  style="fill:#ffffff;fill-rule:evenodd"/>
            <polygon
                    points="36 28 36 36 40 36 40 40 44 40 44 44 48 44 48 48 52 48 52 52 64 52 64 48 60 48 60 40 68 40 68 36 64 36 64 32 68 32 68 20 64 20 64 16 48 16 48 24 40 24 40 32 32 32 32 28 28 28 28 16 36 16 36 24 24 24 24 20 20 20 20 16 16 16 16 4 20 4 20 0 32 0 32 4 36 4 36 0 48 0 48 4 52 4 52 20 44 20 44 28 36 28"
                    style="fill:#67b062;fill-rule:evenodd"/>
            <polygon
                    points="0 36 0 48 4 48 4 52 20 52 20 44 28 44 28 36 36 36 36 40 40 40 40 44 44 44 44 48 48 48 48 52 52 52 52 64 48 64 48 68 36 68 36 56 44 56 44 64 32 64 32 68 20 68 20 64 16 64 16 48 24 48 24 40 32 40 32 32 28 32 28 28 24 28 24 24 20 24 20 20 16 20 16 16 4 16 4 20 12 20 12 28 4 28 4 20 0 20 0 32 4 32 4 36 0 36"
                    style="fill:#595591;fill-rule:evenodd"/>
        </g>
    </g>
</svg>