<svg width="244" height="77" viewBox="0 0 244 77" fill="none" xmlns="http://www.w3.org/2000/svg">
<path d="M97.147 34.8203H92.4808C92.3956 34.2166 92.2216 33.6804 91.9588 33.2116C91.696 32.7358 91.3587 32.331 90.9467 31.9972C90.5348 31.6634 90.0589 31.4077 89.5192 31.2301C88.9865 31.0526 88.4077 30.9638 87.7827 30.9638C86.6534 30.9638 85.6697 31.2443 84.8317 31.8054C83.9936 32.3594 83.3438 33.169 82.8821 34.2344C82.4205 35.2926 82.1896 36.5781 82.1896 38.0909C82.1896 39.6463 82.4205 40.9531 82.8821 42.0114C83.3509 43.0696 84.0043 43.8686 84.8423 44.4084C85.6804 44.9482 86.6499 45.218 87.7507 45.218C88.3686 45.218 88.9403 45.1364 89.4659 44.973C89.9986 44.8097 90.4709 44.5717 90.8828 44.2592C91.2947 43.9396 91.6357 43.5526 91.9055 43.098C92.1825 42.6435 92.3743 42.125 92.4808 41.5426L97.147 41.5639C97.0263 42.5653 96.7244 43.5312 96.2415 44.4616C95.7656 45.3849 95.1229 46.2124 94.3132 46.9439C93.5107 47.6683 92.5518 48.2436 91.4368 48.6697C90.3288 49.0888 89.0753 49.2983 87.6761 49.2983C85.7301 49.2983 83.9901 48.858 82.456 47.9773C80.929 47.0966 79.7216 45.8217 78.8338 44.1527C77.9531 42.4837 77.5128 40.4631 77.5128 38.0909C77.5128 35.7116 77.9602 33.6875 78.8551 32.0185C79.75 30.3494 80.9645 29.0781 82.4986 28.2045C84.0327 27.3239 85.7585 26.8835 87.6761 26.8835C88.9403 26.8835 90.1122 27.0611 91.1918 27.4162C92.2784 27.7713 93.2408 28.2898 94.0788 28.9716C94.9169 29.6463 95.5987 30.4737 96.1243 31.4538C96.657 32.4339 96.9979 33.5561 97.147 34.8203ZM104.908 27.1818V49H100.37V27.1818H104.908ZM116.001 49.3196C114.318 49.3196 112.869 48.9787 111.654 48.2969C110.447 47.608 109.517 46.6349 108.863 45.3778C108.21 44.1136 107.883 42.6186 107.883 40.8928C107.883 39.2095 108.21 37.7322 108.863 36.4609C109.517 35.1896 110.436 34.1989 111.622 33.4886C112.816 32.7784 114.215 32.4233 115.82 32.4233C116.899 32.4233 117.904 32.5973 118.835 32.9453C119.772 33.2862 120.589 33.8011 121.285 34.4901C121.988 35.179 122.535 36.0455 122.926 37.0895C123.316 38.1264 123.512 39.3409 123.512 40.733V41.9794H109.694V39.1669H119.24C119.24 38.5135 119.097 37.9347 118.813 37.4304C118.529 36.9261 118.135 36.532 117.631 36.2479C117.134 35.9567 116.555 35.8111 115.894 35.8111C115.205 35.8111 114.595 35.9709 114.062 36.2905C113.536 36.603 113.124 37.0256 112.826 37.5582C112.528 38.0838 112.375 38.6697 112.368 39.3161V41.9901C112.368 42.7997 112.517 43.4993 112.816 44.0888C113.121 44.6783 113.551 45.1328 114.105 45.4524C114.659 45.772 115.316 45.9318 116.075 45.9318C116.58 45.9318 117.041 45.8608 117.46 45.7188C117.879 45.5767 118.238 45.3636 118.536 45.0795C118.835 44.7955 119.062 44.4474 119.218 44.0355L123.416 44.3125C123.203 45.321 122.766 46.2017 122.105 46.9545C121.452 47.7003 120.607 48.2827 119.57 48.7017C118.54 49.1136 117.35 49.3196 116.001 49.3196ZM141.289 32.6364L135.569 49H130.455L124.734 32.6364H129.528L132.926 44.3445H133.097L136.485 32.6364H141.289ZM150.542 49.3196C148.859 49.3196 147.41 48.9787 146.195 48.2969C144.988 47.608 144.058 46.6349 143.404 45.3778C142.751 44.1136 142.424 42.6186 142.424 40.8928C142.424 39.2095 142.751 37.7322 143.404 36.4609C144.058 35.1896 144.977 34.1989 146.163 33.4886C147.357 32.7784 148.756 32.4233 150.361 32.4233C151.44 32.4233 152.445 32.5973 153.376 32.9453C154.313 33.2862 155.13 33.8011 155.826 34.4901C156.529 35.179 157.076 36.0455 157.467 37.0895C157.857 38.1264 158.053 39.3409 158.053 40.733V41.9794H144.235V39.1669H153.781C153.781 38.5135 153.638 37.9347 153.354 37.4304C153.07 36.9261 152.676 36.532 152.172 36.2479C151.675 35.9567 151.096 35.8111 150.435 35.8111C149.746 35.8111 149.136 35.9709 148.603 36.2905C148.077 36.603 147.665 37.0256 147.367 37.5582C147.069 38.0838 146.916 38.6697 146.909 39.3161V41.9901C146.909 42.7997 147.058 43.4993 147.357 44.0888C147.662 44.6783 148.092 45.1328 148.646 45.4524C149.2 45.772 149.857 45.9318 150.616 45.9318C151.121 45.9318 151.582 45.8608 152.001 45.7188C152.42 45.5767 152.779 45.3636 153.077 45.0795C153.376 44.7955 153.603 44.4474 153.759 44.0355L157.957 44.3125C157.744 45.321 157.307 46.2017 156.646 46.9545C155.993 47.7003 155.148 48.2827 154.111 48.7017C153.081 49.1136 151.891 49.3196 150.542 49.3196ZM161.014 49V32.6364H165.414V35.4915H165.585C165.883 34.4759 166.384 33.7088 167.087 33.1903C167.79 32.6648 168.599 32.402 169.516 32.402C169.743 32.402 169.988 32.4162 170.251 32.4446C170.513 32.473 170.744 32.5121 170.943 32.5618V36.5888C170.73 36.5249 170.435 36.468 170.059 36.4183C169.683 36.3686 169.338 36.3438 169.026 36.3438C168.358 36.3438 167.761 36.4893 167.236 36.7805C166.717 37.0646 166.305 37.4624 166 37.9737C165.702 38.4851 165.553 39.0746 165.553 39.7422V49H161.014Z" fill="#7C01C7"/>
<path d="M192.626 34.8203H187.959C187.874 34.2166 187.7 33.6804 187.437 33.2116C187.175 32.7358 186.837 32.331 186.425 31.9972C186.013 31.6634 185.537 31.4077 184.998 31.2301C184.465 31.0526 183.886 30.9638 183.261 30.9638C182.132 30.9638 181.148 31.2443 180.31 31.8054C179.472 32.3594 178.822 33.169 178.361 34.2344C177.899 35.2926 177.668 36.5781 177.668 38.0909C177.668 39.6463 177.899 40.9531 178.361 42.0114C178.829 43.0696 179.483 43.8686 180.321 44.4084C181.159 44.9482 182.128 45.218 183.229 45.218C183.847 45.218 184.419 45.1364 184.944 44.973C185.477 44.8097 185.949 44.5717 186.361 44.2592C186.773 43.9396 187.114 43.5526 187.384 43.098C187.661 42.6435 187.853 42.125 187.959 41.5426L192.626 41.5639C192.505 42.5653 192.203 43.5312 191.72 44.4616C191.244 45.3849 190.601 46.2124 189.792 46.9439C188.989 47.6683 188.03 48.2436 186.915 48.6697C185.807 49.0888 184.554 49.2983 183.155 49.2983C181.209 49.2983 179.469 48.858 177.934 47.9773C176.407 47.0966 175.2 45.8217 174.312 44.1527C173.432 42.4837 172.991 40.4631 172.991 38.0909C172.991 35.7116 173.439 33.6875 174.334 32.0185C175.229 30.3494 176.443 29.0781 177.977 28.2045C179.511 27.3239 181.237 26.8835 183.155 26.8835C184.419 26.8835 185.591 27.0611 186.67 27.4162C187.757 27.7713 188.719 28.2898 189.557 28.9716C190.395 29.6463 191.077 30.4737 191.603 31.4538C192.135 32.4339 192.476 33.5561 192.626 34.8203ZM195.933 49V27.1818H204.541C206.189 27.1818 207.595 27.4766 208.76 28.0661C209.932 28.6484 210.823 29.4759 211.434 30.5483C212.052 31.6136 212.361 32.8672 212.361 34.3089C212.361 35.7578 212.048 37.0043 211.423 38.0483C210.798 39.0852 209.893 39.8807 208.707 40.4347C207.528 40.9886 206.1 41.2656 204.424 41.2656H198.661V37.5582H203.678C204.559 37.5582 205.291 37.4375 205.873 37.196C206.455 36.9545 206.889 36.5923 207.173 36.1094C207.464 35.6264 207.61 35.0263 207.61 34.3089C207.61 33.5845 207.464 32.9737 207.173 32.4766C206.889 31.9794 206.452 31.603 205.862 31.3473C205.28 31.0845 204.545 30.9531 203.657 30.9531H200.546V49H195.933ZM207.716 39.071L213.139 49H208.046L202.741 39.071H207.716ZM215.621 27.1818H221.31L227.318 41.8409H227.574L233.583 27.1818H239.271V49H234.797V34.799H234.616L228.97 48.8935H225.923L220.276 34.7457H220.095V49H215.621V27.1818Z" fill="#4AD688"/>
<path d="M50.9116 26.8701L59.3969 35.3553L48.0832 46.669L41.7192 40.3051C40.5477 39.1335 40.5477 37.234 41.7192 36.0624L50.9116 26.8701Z" fill="#4AD688"/>
<path d="M53.0328 24.7487C55.3759 22.4056 59.1749 22.4056 61.518 24.7487C63.8612 27.0919 63.8612 30.8909 61.518 33.234L57.1435 37.6085L48.6583 29.1232L53.0328 24.7487Z" fill="#4AD688"/>
<path d="M58.3691 34.328L63.6391 39.598C66.7633 42.7222 66.7633 47.7875 63.6391 50.9117C60.5149 54.0359 55.4496 54.0359 52.3254 50.9117L47.0554 45.6417L58.3691 34.328Z" fill="#4AD688"/>
<path d="M56.5681 26.8701C58.1302 25.308 60.6628 25.308 62.2249 26.8701L62.5785 27.2236C64.1406 28.7857 64.1406 31.3184 62.5785 32.8805L59.75 35.7089L56.5681 32.5269C55.006 30.9648 55.006 28.4322 56.5681 26.8701Z" fill="#7C01C7"/>
<path d="M26.8696 25.4558L35.2944 17.031L46.6081 28.3447L40.3047 34.6482C39.1331 35.8198 37.2336 35.8198 36.062 34.6482L26.8696 25.4558Z" fill="#4AD688"/>
<path d="M24.7485 23.3345C22.4054 20.9913 22.4054 17.1924 24.7485 14.8492C27.0916 12.5061 30.8906 12.5061 33.2338 14.8492L38.6757 20.2912L30.1905 28.7765L24.7485 23.3345Z" fill="#4AD688"/>
<path d="M33.4624 18.8633L39.5978 12.7279C42.722 9.60371 47.7873 9.60371 50.9115 12.7279C54.0357 15.8521 54.0357 20.9174 50.9115 24.0416L44.7761 30.177L33.4624 18.8633Z" fill="#4AD688"/>
<path d="M26.8699 19.7989C25.3078 18.2368 25.3078 15.7042 26.8699 14.1421L27.2235 13.7885C28.7856 12.2264 31.3182 12.2264 32.8803 13.7885L35.7088 16.617L32.5268 19.7989C30.9647 21.361 28.432 21.361 26.8699 19.7989Z" fill="#7C01C7"/>
<path d="M25.4556 49.4975L16.9703 41.0122L28.284 29.6985L34.648 36.0625C35.8195 37.234 35.8195 39.1335 34.648 40.3051L25.4556 49.4975Z" fill="#4AD688"/>
<path d="M23.3344 51.6188C20.9913 53.962 17.1923 53.962 14.8492 51.6188C12.506 49.2757 12.506 45.4767 14.8492 43.1335L19.1637 38.819L27.649 47.3043L23.3344 51.6188Z" fill="#4AD688"/>
<path d="M19.3325 43.3738L12.7282 36.7696C9.60405 33.6454 9.60405 28.5801 12.7282 25.4559C15.8524 22.3317 20.9178 22.3317 24.042 25.4559L30.6462 32.0601L19.3325 43.3738Z" fill="#4AD688"/>
<path d="M19.7991 49.4975C18.237 51.0596 15.7044 51.0596 14.1423 49.4975L13.7887 49.1439C12.2266 47.5819 12.2266 45.0492 13.7887 43.4871L16.6171 40.6587L19.7991 43.8406C21.3612 45.4027 21.3612 47.9354 19.7991 49.4975Z" fill="#7C01C7"/>
<path d="M49.4976 50.9117L41.0123 59.397L29.6986 48.0833L36.0625 41.7193C37.2341 40.5477 39.1336 40.5477 40.3052 41.7193L49.4976 50.9117Z" fill="#4AD688"/>
<path d="M51.6187 53.033C53.9618 55.3761 53.9618 59.1751 51.6187 61.5183C49.2755 63.8614 45.4766 63.8614 43.1334 61.5183L38.9511 57.3359L47.4363 48.8506L51.6187 53.033Z" fill="#4AD688"/>
<path d="M42.9199 57.4893L36.7696 63.6396C33.6454 66.7638 28.5801 66.7638 25.4559 63.6396C22.3317 60.5154 22.3317 55.4501 25.4559 52.3259L31.6062 46.1756L42.9199 57.4893Z" fill="#4AD688"/>
<path d="M49.4973 56.5685C51.0594 58.1306 51.0594 60.6633 49.4973 62.2254L49.1437 62.579C47.5816 64.1411 45.0489 64.141 43.4868 62.579L40.6584 59.7505L43.8404 56.5685C45.4025 55.0064 47.9352 55.0064 49.4973 56.5685Z" fill="#7C01C7"/>
</svg>
