<svg width="136" height="311" viewBox="0 0 136 311" fill="none" xmlns="http://www.w3.org/2000/svg">
<path d="M130.87 288.057C128.158 287.473 125.341 288.68 124.577 290.752C123.813 292.824 125.392 294.977 128.104 295.56C130.815 296.144 133.633 294.937 134.397 292.865C135.16 290.793 133.581 288.641 130.87 288.057Z" fill="white" fill-opacity="0.3"/>
<path d="M103.209 119.917C104.48 116.47 109.166 114.462 113.678 115.434C118.19 116.405 120.816 119.986 119.545 123.433C118.275 126.881 113.588 128.888 109.076 127.917C104.564 126.946 101.938 123.365 103.209 119.917Z" fill="#4AD688"/>
<path d="M80.952 157.997L63.4 165.892" stroke="#4AD688" stroke-miterlimit="10"/>
<path d="M77.8822 154.898L50.2896 167.296" stroke="#4AD688" stroke-miterlimit="10"/>
<path d="M85.568 145.851L57.2388 158.598" stroke="#4AD688" stroke-miterlimit="10"/>
<path d="M110.813 100.505L77.4276 115.511" stroke="#4AD688" stroke-miterlimit="10"/>
<path d="M104.956 94.624L52.5099 118.186" stroke="#4AD688" stroke-miterlimit="10"/>
<path d="M119.595 77.4176L65.7217 101.642" stroke="white" stroke-miterlimit="10"/>
<path d="M45.6769 138.59C42.9653 138.006 40.1478 139.213 39.384 141.285C38.6202 143.357 40.1993 145.51 42.9109 146.094C45.6226 146.677 48.44 145.471 49.2038 143.399C49.9676 141.327 48.3886 139.174 45.6769 138.59Z" fill="white" fill-opacity="0.3"/>
<path d="M70.0925 62.87C70.8567 60.7969 73.6724 59.5911 76.3854 60.1751C79.0983 60.759 80.6765 62.9105 79.9123 64.9836C79.1481 67.0566 76.3324 68.2625 73.6194 67.6786C70.9064 67.0946 69.3284 64.943 70.0925 62.87Z" fill="white" fill-opacity="0.3"/>
<path d="M28.7414 250.363C29.0944 249.405 30.3983 248.847 31.6516 249.116C32.9049 249.386 33.6357 250.383 33.2826 251.34C32.9296 252.298 31.6257 252.856 30.3724 252.586C29.1233 252.305 28.3884 251.32 28.7414 250.363Z" fill="white" fill-opacity="0.3"/>
<path d="M1.38306 4.70569C2.14724 2.63264 4.96296 1.42675 7.67592 2.01068C10.3889 2.59461 11.967 4.74621 11.2028 6.81926C10.4386 8.89231 7.62289 10.0982 4.90992 9.51426C2.19695 8.93033 0.618883 6.77874 1.38306 4.70569Z" fill="white" fill-opacity="0.3"/>
<path d="M129.359 209.794C126.647 209.211 123.83 210.417 123.066 212.489C122.302 214.561 123.881 216.714 126.593 217.298C129.305 217.881 132.122 216.675 132.886 214.603C133.65 212.531 132.071 210.378 129.359 209.794Z" fill="white" fill-opacity="0.3"/>
<path d="M52.5488 11.5809L40.5372 4.44762L28.4941 19.245L52.5488 11.5809Z" fill="#4AD688"/>
<path d="M84.5969 33.0035L81.5006 9.11061L28.7284 28.3236L84.5969 33.0035Z" fill="#4AD688"/>
<path d="M82.642 307.109L104.129 301.36L85.6867 288.185L82.642 307.109Z" fill="#4AD688"/>
</svg>
